<mxfile host="Electron" agent="Mozilla/5.0 (Macintosh; Intel Mac OS X 10_15_7) AppleWebKit/537.36 (KHTML, like Gecko) draw.io/27.0.5 Chrome/134.0.6998.205 Electron/35.3.0 Safari/537.36" version="27.0.5">
  <diagram name="Page-1" id="GQIRX4CWs7_rUXRklLaL">
    <mxGraphModel dx="1073" dy="768" grid="1" gridSize="10" guides="1" tooltips="1" connect="1" arrows="1" fold="1" page="1" pageScale="1" pageWidth="850" pageHeight="1100" math="0" shadow="0">
      <root>
        <mxCell id="0" />
        <mxCell id="1" parent="0" />
        <mxCell id="033j12LSlAJKVOFd8GI1-6" style="edgeStyle=orthogonalEdgeStyle;rounded=0;orthogonalLoop=1;jettySize=auto;html=1;exitX=1;exitY=0.5;exitDx=0;exitDy=0;strokeColor=#0B4D6A;labelBackgroundColor=none;fontColor=default;" edge="1" parent="1" source="033j12LSlAJKVOFd8GI1-1" target="033j12LSlAJKVOFd8GI1-3">
          <mxGeometry relative="1" as="geometry" />
        </mxCell>
        <mxCell id="033j12LSlAJKVOFd8GI1-1" value="start" style="ellipse;whiteSpace=wrap;html=1;labelBackgroundColor=none;fillColor=#09555B;strokeColor=#BAC8D3;fontColor=#EEEEEE;" vertex="1" parent="1">
          <mxGeometry x="40" y="40" width="120" height="80" as="geometry" />
        </mxCell>
        <mxCell id="033j12LSlAJKVOFd8GI1-9" value="no" style="edgeStyle=orthogonalEdgeStyle;rounded=0;orthogonalLoop=1;jettySize=auto;html=1;exitX=0;exitY=0.5;exitDx=0;exitDy=0;entryX=1;entryY=0.5;entryDx=0;entryDy=0;strokeColor=#0B4D6A;" edge="1" parent="1" source="033j12LSlAJKVOFd8GI1-2" target="033j12LSlAJKVOFd8GI1-8">
          <mxGeometry relative="1" as="geometry" />
        </mxCell>
        <mxCell id="033j12LSlAJKVOFd8GI1-12" style="edgeStyle=orthogonalEdgeStyle;rounded=0;orthogonalLoop=1;jettySize=auto;html=1;exitX=0.5;exitY=1;exitDx=0;exitDy=0;entryX=0.5;entryY=0;entryDx=0;entryDy=0;strokeColor=#0B4D6A;" edge="1" parent="1" source="033j12LSlAJKVOFd8GI1-2" target="033j12LSlAJKVOFd8GI1-10">
          <mxGeometry relative="1" as="geometry" />
        </mxCell>
        <mxCell id="033j12LSlAJKVOFd8GI1-13" value="yes" style="edgeLabel;html=1;align=center;verticalAlign=middle;resizable=0;points=[];strokeColor=#BAC8D3;fontColor=#EEEEEE;fillColor=#09555B;" vertex="1" connectable="0" parent="033j12LSlAJKVOFd8GI1-12">
          <mxGeometry x="-0.1248" y="1" relative="1" as="geometry">
            <mxPoint as="offset" />
          </mxGeometry>
        </mxCell>
        <mxCell id="033j12LSlAJKVOFd8GI1-2" value="validation ok?" style="rhombus;whiteSpace=wrap;html=1;strokeColor=#BAC8D3;fontColor=#EEEEEE;fillColor=#09555B;labelBackgroundColor=none;" vertex="1" parent="1">
          <mxGeometry x="260" y="170" width="120" height="100" as="geometry" />
        </mxCell>
        <mxCell id="033j12LSlAJKVOFd8GI1-7" style="edgeStyle=orthogonalEdgeStyle;rounded=0;orthogonalLoop=1;jettySize=auto;html=1;exitX=0.5;exitY=1;exitDx=0;exitDy=0;entryX=0.5;entryY=0;entryDx=0;entryDy=0;strokeColor=#0B4D6A;" edge="1" parent="1" source="033j12LSlAJKVOFd8GI1-3" target="033j12LSlAJKVOFd8GI1-2">
          <mxGeometry relative="1" as="geometry" />
        </mxCell>
        <mxCell id="033j12LSlAJKVOFd8GI1-3" value="parse and validate parameters" style="rounded=1;whiteSpace=wrap;html=1;strokeColor=#BAC8D3;fontColor=#EEEEEE;fillColor=#09555B;labelBackgroundColor=none;" vertex="1" parent="1">
          <mxGeometry x="260" y="50" width="120" height="60" as="geometry" />
        </mxCell>
        <mxCell id="033j12LSlAJKVOFd8GI1-5" value="&lt;h1 style=&quot;margin-top: 0px;&quot;&gt;&lt;font style=&quot;font-size: 16px;&quot;&gt;which mode to use&lt;/font&gt;&lt;/h1&gt;&lt;div&gt;&lt;font style=&quot;&quot; size=&quot;1&quot;&gt;there are 2 modes&lt;/font&gt;&lt;/div&gt;&lt;div&gt;&lt;font style=&quot;&quot; size=&quot;1&quot;&gt;- multi file&lt;/font&gt;&lt;/div&gt;&lt;div&gt;&lt;font style=&quot;&quot; size=&quot;1&quot;&gt;- single file&lt;/font&gt;&lt;/div&gt;&lt;div&gt;&lt;font style=&quot;&quot; size=&quot;1&quot;&gt;&lt;br&gt;&lt;/font&gt;&lt;/div&gt;&lt;div&gt;&lt;font style=&quot;&quot; size=&quot;1&quot;&gt;when you are preparing a configuration object holding associated sibling / child configurations -&amp;gt; multi file mode is preferred. It would return all configs found to the caller; it is the caller&#39;s responsibility to associate the sibling / child configs to the parent config. The outcome is to have 1 single config object prepared&lt;/font&gt;&lt;/div&gt;&lt;div&gt;&lt;font style=&quot;&quot; size=&quot;1&quot;&gt;&lt;br&gt;&lt;/font&gt;&lt;/div&gt;&lt;div&gt;&lt;font style=&quot;&quot; size=&quot;1&quot;&gt;when you have many config files available in the folder; but only interested in 1 of them -&amp;gt; single mode is preferred. So the only interested config file would be loaded and prepared back to the caller&lt;/font&gt;&lt;/div&gt;&lt;div&gt;&lt;font style=&quot;&quot; size=&quot;1&quot;&gt;&lt;br&gt;&lt;/font&gt;&lt;/div&gt;" style="text;html=1;whiteSpace=wrap;overflow=hidden;rounded=0;fontColor=#EEEEEE;fillColor=#09555B;strokeColor=#BAC8D3;labelBackgroundColor=none;" vertex="1" parent="1">
          <mxGeometry x="600" y="30" width="380" height="250" as="geometry" />
        </mxCell>
        <mxCell id="033j12LSlAJKVOFd8GI1-11" style="edgeStyle=orthogonalEdgeStyle;rounded=0;orthogonalLoop=1;jettySize=auto;html=1;exitX=0.5;exitY=1;exitDx=0;exitDy=0;strokeColor=#0B4D6A;" edge="1" parent="1" source="033j12LSlAJKVOFd8GI1-8" target="033j12LSlAJKVOFd8GI1-10">
          <mxGeometry relative="1" as="geometry" />
        </mxCell>
        <mxCell id="033j12LSlAJKVOFd8GI1-8" value="use default parameters" style="rounded=1;whiteSpace=wrap;html=1;strokeColor=#BAC8D3;fontColor=#EEEEEE;fillColor=#09555B;labelBackgroundColor=none;" vertex="1" parent="1">
          <mxGeometry x="40" y="190" width="120" height="60" as="geometry" />
        </mxCell>
        <mxCell id="033j12LSlAJKVOFd8GI1-15" style="edgeStyle=orthogonalEdgeStyle;rounded=0;orthogonalLoop=1;jettySize=auto;html=1;exitX=1;exitY=0.5;exitDx=0;exitDy=0;entryX=0;entryY=0.5;entryDx=0;entryDy=0;strokeColor=#0B4D6A;" edge="1" parent="1" source="033j12LSlAJKVOFd8GI1-10" target="033j12LSlAJKVOFd8GI1-14">
          <mxGeometry relative="1" as="geometry" />
        </mxCell>
        <mxCell id="033j12LSlAJKVOFd8GI1-10" value="validate back-fill / default config location availability" style="rounded=1;whiteSpace=wrap;html=1;strokeColor=#BAC8D3;fontColor=#EEEEEE;fillColor=#09555B;labelBackgroundColor=none;" vertex="1" parent="1">
          <mxGeometry x="40" y="350" width="120" height="60" as="geometry" />
        </mxCell>
        <mxCell id="033j12LSlAJKVOFd8GI1-17" style="edgeStyle=orthogonalEdgeStyle;rounded=0;orthogonalLoop=1;jettySize=auto;html=1;exitX=0.5;exitY=1;exitDx=0;exitDy=0;entryX=0.5;entryY=0;entryDx=0;entryDy=0;strokeColor=#0B4D6A;" edge="1" parent="1" source="033j12LSlAJKVOFd8GI1-14" target="033j12LSlAJKVOFd8GI1-16">
          <mxGeometry relative="1" as="geometry" />
        </mxCell>
        <mxCell id="033j12LSlAJKVOFd8GI1-18" value="no" style="edgeLabel;html=1;align=center;verticalAlign=middle;resizable=0;points=[];strokeColor=#BAC8D3;fontColor=#EEEEEE;fillColor=#09555B;" vertex="1" connectable="0" parent="033j12LSlAJKVOFd8GI1-17">
          <mxGeometry x="0.0124" y="-2" relative="1" as="geometry">
            <mxPoint as="offset" />
          </mxGeometry>
        </mxCell>
        <mxCell id="033j12LSlAJKVOFd8GI1-20" style="edgeStyle=orthogonalEdgeStyle;rounded=0;orthogonalLoop=1;jettySize=auto;html=1;exitX=1;exitY=0.5;exitDx=0;exitDy=0;entryX=0;entryY=0.5;entryDx=0;entryDy=0;strokeColor=#0B4D6A;" edge="1" parent="1" source="033j12LSlAJKVOFd8GI1-14" target="033j12LSlAJKVOFd8GI1-19">
          <mxGeometry relative="1" as="geometry" />
        </mxCell>
        <mxCell id="033j12LSlAJKVOFd8GI1-21" value="yes" style="edgeLabel;html=1;align=center;verticalAlign=middle;resizable=0;points=[];strokeColor=#BAC8D3;fontColor=#EEEEEE;fillColor=#09555B;" vertex="1" connectable="0" parent="033j12LSlAJKVOFd8GI1-20">
          <mxGeometry x="0.1286" y="1" relative="1" as="geometry">
            <mxPoint as="offset" />
          </mxGeometry>
        </mxCell>
        <mxCell id="033j12LSlAJKVOFd8GI1-14" value="location exists?" style="rhombus;whiteSpace=wrap;html=1;strokeColor=#BAC8D3;fontColor=#EEEEEE;fillColor=#09555B;labelBackgroundColor=none;" vertex="1" parent="1">
          <mxGeometry x="260" y="330" width="120" height="100" as="geometry" />
        </mxCell>
        <mxCell id="033j12LSlAJKVOFd8GI1-16" value="[E001]&amp;nbsp;&lt;div&gt;failure - back-fill config files is COMPULSORY&lt;/div&gt;" style="ellipse;whiteSpace=wrap;html=1;labelBackgroundColor=none;fillColor=#09555B;strokeColor=#BAC8D3;fontColor=#EEEEEE;" vertex="1" parent="1">
          <mxGeometry x="40" y="640" width="120" height="80" as="geometry" />
        </mxCell>
        <mxCell id="033j12LSlAJKVOFd8GI1-27" style="edgeStyle=orthogonalEdgeStyle;rounded=0;orthogonalLoop=1;jettySize=auto;html=1;exitX=1;exitY=0.5;exitDx=0;exitDy=0;entryX=0;entryY=0.5;entryDx=0;entryDy=0;strokeColor=#0B4D6A;" edge="1" parent="1" source="033j12LSlAJKVOFd8GI1-19" target="033j12LSlAJKVOFd8GI1-22">
          <mxGeometry relative="1" as="geometry" />
        </mxCell>
        <mxCell id="033j12LSlAJKVOFd8GI1-28" value="yes" style="edgeLabel;html=1;align=center;verticalAlign=middle;resizable=0;points=[];strokeColor=#BAC8D3;fontColor=#EEEEEE;fillColor=#09555B;" vertex="1" connectable="0" parent="033j12LSlAJKVOFd8GI1-27">
          <mxGeometry x="0.0298" y="1" relative="1" as="geometry">
            <mxPoint as="offset" />
          </mxGeometry>
        </mxCell>
        <mxCell id="033j12LSlAJKVOFd8GI1-32" style="edgeStyle=orthogonalEdgeStyle;rounded=0;orthogonalLoop=1;jettySize=auto;html=1;exitX=0.5;exitY=1;exitDx=0;exitDy=0;entryX=0.5;entryY=0;entryDx=0;entryDy=0;strokeColor=#0B4D6A;" edge="1" parent="1" source="033j12LSlAJKVOFd8GI1-19" target="033j12LSlAJKVOFd8GI1-31">
          <mxGeometry relative="1" as="geometry" />
        </mxCell>
        <mxCell id="033j12LSlAJKVOFd8GI1-33" value="no" style="edgeLabel;html=1;align=center;verticalAlign=middle;resizable=0;points=[];strokeColor=#BAC8D3;fontColor=#EEEEEE;fillColor=#09555B;" vertex="1" connectable="0" parent="033j12LSlAJKVOFd8GI1-32">
          <mxGeometry x="-0.1444" y="1" relative="1" as="geometry">
            <mxPoint as="offset" />
          </mxGeometry>
        </mxCell>
        <mxCell id="033j12LSlAJKVOFd8GI1-19" value="is&amp;nbsp;&lt;div&gt;Multi file mode ?&lt;/div&gt;" style="rhombus;whiteSpace=wrap;html=1;strokeColor=#BAC8D3;fontColor=#EEEEEE;fillColor=#09555B;labelBackgroundColor=none;" vertex="1" parent="1">
          <mxGeometry x="480" y="330" width="120" height="100" as="geometry" />
        </mxCell>
        <mxCell id="033j12LSlAJKVOFd8GI1-35" style="edgeStyle=orthogonalEdgeStyle;rounded=0;orthogonalLoop=1;jettySize=auto;html=1;exitX=0.5;exitY=1;exitDx=0;exitDy=0;entryX=0.5;entryY=0;entryDx=0;entryDy=0;strokeColor=#0B4D6A;" edge="1" parent="1" source="033j12LSlAJKVOFd8GI1-22" target="033j12LSlAJKVOFd8GI1-34">
          <mxGeometry relative="1" as="geometry" />
        </mxCell>
        <mxCell id="033j12LSlAJKVOFd8GI1-22" value="load all config files in the back-fill folder" style="rounded=1;whiteSpace=wrap;html=1;strokeColor=#BAC8D3;fontColor=#EEEEEE;fillColor=#09555B;labelBackgroundColor=none;" vertex="1" parent="1">
          <mxGeometry x="700" y="350" width="120" height="60" as="geometry" />
        </mxCell>
        <mxCell id="033j12LSlAJKVOFd8GI1-26" value="[I001]&lt;div&gt;return all merged config(s) to the caller&lt;/div&gt;" style="ellipse;whiteSpace=wrap;html=1;labelBackgroundColor=none;fillColor=#09555B;strokeColor=#BAC8D3;fontColor=#EEEEEE;" vertex="1" parent="1">
          <mxGeometry x="700" y="1420" width="120" height="80" as="geometry" />
        </mxCell>
        <mxCell id="033j12LSlAJKVOFd8GI1-37" style="edgeStyle=orthogonalEdgeStyle;rounded=0;orthogonalLoop=1;jettySize=auto;html=1;exitX=1;exitY=0.5;exitDx=0;exitDy=0;entryX=0.5;entryY=0;entryDx=0;entryDy=0;strokeColor=#0B4D6A;" edge="1" parent="1" source="033j12LSlAJKVOFd8GI1-31" target="033j12LSlAJKVOFd8GI1-34">
          <mxGeometry relative="1" as="geometry" />
        </mxCell>
        <mxCell id="033j12LSlAJKVOFd8GI1-31" value="load the target config file only" style="rounded=1;whiteSpace=wrap;html=1;strokeColor=#BAC8D3;fontColor=#EEEEEE;fillColor=#09555B;labelBackgroundColor=none;" vertex="1" parent="1">
          <mxGeometry x="480" y="510" width="120" height="60" as="geometry" />
        </mxCell>
        <mxCell id="033j12LSlAJKVOFd8GI1-39" style="edgeStyle=orthogonalEdgeStyle;rounded=0;orthogonalLoop=1;jettySize=auto;html=1;entryX=1;entryY=0.5;entryDx=0;entryDy=0;strokeColor=#0B4D6A;" edge="1" parent="1" source="033j12LSlAJKVOFd8GI1-34" target="033j12LSlAJKVOFd8GI1-38">
          <mxGeometry relative="1" as="geometry" />
        </mxCell>
        <mxCell id="033j12LSlAJKVOFd8GI1-34" value="validate (custom) config location availability" style="rounded=1;whiteSpace=wrap;html=1;strokeColor=#BAC8D3;fontColor=#EEEEEE;fillColor=#09555B;labelBackgroundColor=none;" vertex="1" parent="1">
          <mxGeometry x="700" y="650" width="120" height="60" as="geometry" />
        </mxCell>
        <mxCell id="033j12LSlAJKVOFd8GI1-41" style="edgeStyle=orthogonalEdgeStyle;rounded=0;orthogonalLoop=1;jettySize=auto;html=1;exitX=0;exitY=0.5;exitDx=0;exitDy=0;entryX=1;entryY=0.5;entryDx=0;entryDy=0;strokeColor=#0B4D6A;" edge="1" parent="1" source="033j12LSlAJKVOFd8GI1-38" target="033j12LSlAJKVOFd8GI1-40">
          <mxGeometry relative="1" as="geometry" />
        </mxCell>
        <mxCell id="033j12LSlAJKVOFd8GI1-42" value="no" style="edgeLabel;html=1;align=center;verticalAlign=middle;resizable=0;points=[];strokeColor=#BAC8D3;fontColor=#EEEEEE;fillColor=#09555B;" vertex="1" connectable="0" parent="033j12LSlAJKVOFd8GI1-41">
          <mxGeometry x="-0.1964" y="2" relative="1" as="geometry">
            <mxPoint as="offset" />
          </mxGeometry>
        </mxCell>
        <mxCell id="033j12LSlAJKVOFd8GI1-44" style="edgeStyle=orthogonalEdgeStyle;rounded=0;orthogonalLoop=1;jettySize=auto;html=1;exitX=0.5;exitY=1;exitDx=0;exitDy=0;entryX=0.5;entryY=0;entryDx=0;entryDy=0;strokeColor=#0B4D6A;" edge="1" parent="1" source="033j12LSlAJKVOFd8GI1-38" target="033j12LSlAJKVOFd8GI1-43">
          <mxGeometry relative="1" as="geometry" />
        </mxCell>
        <mxCell id="033j12LSlAJKVOFd8GI1-45" value="yes" style="edgeLabel;html=1;align=center;verticalAlign=middle;resizable=0;points=[];strokeColor=#BAC8D3;fontColor=#EEEEEE;fillColor=#09555B;" vertex="1" connectable="0" parent="033j12LSlAJKVOFd8GI1-44">
          <mxGeometry x="-0.1444" y="-1" relative="1" as="geometry">
            <mxPoint as="offset" />
          </mxGeometry>
        </mxCell>
        <mxCell id="033j12LSlAJKVOFd8GI1-38" value="location exists?" style="rhombus;whiteSpace=wrap;html=1;strokeColor=#BAC8D3;fontColor=#EEEEEE;fillColor=#09555B;labelBackgroundColor=none;" vertex="1" parent="1">
          <mxGeometry x="480" y="630" width="120" height="100" as="geometry" />
        </mxCell>
        <mxCell id="033j12LSlAJKVOFd8GI1-40" value="[E002]&lt;div&gt;failure - (custom) config files is COMPULSORY&lt;/div&gt;" style="ellipse;whiteSpace=wrap;html=1;labelBackgroundColor=none;fillColor=#09555B;strokeColor=#BAC8D3;fontColor=#EEEEEE;" vertex="1" parent="1">
          <mxGeometry x="260" y="640" width="120" height="80" as="geometry" />
        </mxCell>
        <mxCell id="033j12LSlAJKVOFd8GI1-47" style="edgeStyle=orthogonalEdgeStyle;rounded=0;orthogonalLoop=1;jettySize=auto;html=1;entryX=0;entryY=0.5;entryDx=0;entryDy=0;strokeColor=#0B4D6A;" edge="1" parent="1" source="033j12LSlAJKVOFd8GI1-43" target="033j12LSlAJKVOFd8GI1-46">
          <mxGeometry relative="1" as="geometry" />
        </mxCell>
        <mxCell id="033j12LSlAJKVOFd8GI1-48" value="yes" style="edgeLabel;html=1;align=center;verticalAlign=middle;resizable=0;points=[];strokeColor=#BAC8D3;fontColor=#EEEEEE;fillColor=#09555B;" vertex="1" connectable="0" parent="033j12LSlAJKVOFd8GI1-47">
          <mxGeometry x="0.0905" relative="1" as="geometry">
            <mxPoint as="offset" />
          </mxGeometry>
        </mxCell>
        <mxCell id="033j12LSlAJKVOFd8GI1-50" style="edgeStyle=orthogonalEdgeStyle;rounded=0;orthogonalLoop=1;jettySize=auto;html=1;exitX=0.5;exitY=1;exitDx=0;exitDy=0;entryX=0.5;entryY=0;entryDx=0;entryDy=0;strokeColor=#0B4D6A;" edge="1" parent="1" source="033j12LSlAJKVOFd8GI1-43" target="033j12LSlAJKVOFd8GI1-49">
          <mxGeometry relative="1" as="geometry" />
        </mxCell>
        <mxCell id="033j12LSlAJKVOFd8GI1-51" value="no" style="edgeLabel;html=1;align=center;verticalAlign=middle;resizable=0;points=[];strokeColor=#BAC8D3;fontColor=#EEEEEE;fillColor=#09555B;" vertex="1" connectable="0" parent="033j12LSlAJKVOFd8GI1-50">
          <mxGeometry x="-0.1257" y="-3" relative="1" as="geometry">
            <mxPoint as="offset" />
          </mxGeometry>
        </mxCell>
        <mxCell id="033j12LSlAJKVOFd8GI1-43" value="is&amp;nbsp;&lt;div&gt;Multi file mode ?&lt;/div&gt;" style="rhombus;whiteSpace=wrap;html=1;strokeColor=#BAC8D3;fontColor=#EEEEEE;fillColor=#09555B;labelBackgroundColor=none;" vertex="1" parent="1">
          <mxGeometry x="480" y="810" width="120" height="100" as="geometry" />
        </mxCell>
        <mxCell id="033j12LSlAJKVOFd8GI1-53" style="edgeStyle=orthogonalEdgeStyle;rounded=0;orthogonalLoop=1;jettySize=auto;html=1;entryX=0.5;entryY=0;entryDx=0;entryDy=0;strokeColor=#0B4D6A;" edge="1" parent="1" source="033j12LSlAJKVOFd8GI1-46" target="033j12LSlAJKVOFd8GI1-52">
          <mxGeometry relative="1" as="geometry" />
        </mxCell>
        <mxCell id="033j12LSlAJKVOFd8GI1-46" value="load all matching config files in the (custom) config folder" style="rounded=1;whiteSpace=wrap;html=1;strokeColor=#BAC8D3;fontColor=#EEEEEE;fillColor=#09555B;labelBackgroundColor=none;" vertex="1" parent="1">
          <mxGeometry x="700" y="830" width="120" height="60" as="geometry" />
        </mxCell>
        <mxCell id="033j12LSlAJKVOFd8GI1-54" style="edgeStyle=orthogonalEdgeStyle;rounded=0;orthogonalLoop=1;jettySize=auto;html=1;strokeColor=#0B4D6A;" edge="1" parent="1" source="033j12LSlAJKVOFd8GI1-49">
          <mxGeometry relative="1" as="geometry">
            <mxPoint x="760" y="1100" as="targetPoint" />
          </mxGeometry>
        </mxCell>
        <mxCell id="033j12LSlAJKVOFd8GI1-49" value="load the target (custom) config file only" style="rounded=1;whiteSpace=wrap;html=1;strokeColor=#BAC8D3;fontColor=#EEEEEE;fillColor=#09555B;labelBackgroundColor=none;" vertex="1" parent="1">
          <mxGeometry x="480" y="990" width="120" height="60" as="geometry" />
        </mxCell>
        <mxCell id="033j12LSlAJKVOFd8GI1-57" style="edgeStyle=orthogonalEdgeStyle;rounded=0;orthogonalLoop=1;jettySize=auto;html=1;entryX=0.5;entryY=0;entryDx=0;entryDy=0;strokeColor=#0B4D6A;" edge="1" parent="1" source="033j12LSlAJKVOFd8GI1-52" target="033j12LSlAJKVOFd8GI1-55">
          <mxGeometry relative="1" as="geometry" />
        </mxCell>
        <mxCell id="033j12LSlAJKVOFd8GI1-52" value="merge - upsert the (custom) config data with the back-fill / default data" style="rounded=1;whiteSpace=wrap;html=1;strokeColor=#BAC8D3;fontColor=#EEEEEE;fillColor=#09555B;labelBackgroundColor=none;" vertex="1" parent="1">
          <mxGeometry x="700" y="1100" width="120" height="60" as="geometry" />
        </mxCell>
        <mxCell id="033j12LSlAJKVOFd8GI1-58" style="edgeStyle=orthogonalEdgeStyle;rounded=0;orthogonalLoop=1;jettySize=auto;html=1;exitX=0.5;exitY=1;exitDx=0;exitDy=0;entryX=0.5;entryY=0;entryDx=0;entryDy=0;strokeColor=#0B4D6A;" edge="1" parent="1" source="033j12LSlAJKVOFd8GI1-55" target="033j12LSlAJKVOFd8GI1-26">
          <mxGeometry relative="1" as="geometry" />
        </mxCell>
        <mxCell id="033j12LSlAJKVOFd8GI1-59" value="yes" style="edgeLabel;html=1;align=center;verticalAlign=middle;resizable=0;points=[];strokeColor=#BAC8D3;fontColor=#EEEEEE;fillColor=#09555B;" vertex="1" connectable="0" parent="033j12LSlAJKVOFd8GI1-58">
          <mxGeometry x="-0.2274" y="2" relative="1" as="geometry">
            <mxPoint as="offset" />
          </mxGeometry>
        </mxCell>
        <mxCell id="033j12LSlAJKVOFd8GI1-61" style="edgeStyle=orthogonalEdgeStyle;rounded=0;orthogonalLoop=1;jettySize=auto;html=1;entryX=0.5;entryY=0;entryDx=0;entryDy=0;strokeColor=#0B4D6A;" edge="1" parent="1" source="033j12LSlAJKVOFd8GI1-55" target="033j12LSlAJKVOFd8GI1-60">
          <mxGeometry relative="1" as="geometry" />
        </mxCell>
        <mxCell id="033j12LSlAJKVOFd8GI1-62" value="no" style="edgeLabel;html=1;align=center;verticalAlign=middle;resizable=0;points=[];strokeColor=#BAC8D3;fontColor=#EEEEEE;fillColor=#09555B;" vertex="1" connectable="0" parent="033j12LSlAJKVOFd8GI1-61">
          <mxGeometry x="-0.456" y="2" relative="1" as="geometry">
            <mxPoint as="offset" />
          </mxGeometry>
        </mxCell>
        <mxCell id="033j12LSlAJKVOFd8GI1-55" value="is&amp;nbsp;&lt;div&gt;Multi file mode ?&lt;/div&gt;" style="rhombus;whiteSpace=wrap;html=1;strokeColor=#BAC8D3;fontColor=#EEEEEE;fillColor=#09555B;labelBackgroundColor=none;" vertex="1" parent="1">
          <mxGeometry x="700" y="1240" width="120" height="100" as="geometry" />
        </mxCell>
        <mxCell id="033j12LSlAJKVOFd8GI1-60" value="[I002]&lt;div&gt;return the merged single config to the caller&lt;/div&gt;" style="ellipse;whiteSpace=wrap;html=1;labelBackgroundColor=none;fillColor=#09555B;strokeColor=#BAC8D3;fontColor=#EEEEEE;" vertex="1" parent="1">
          <mxGeometry x="480" y="1420" width="120" height="80" as="geometry" />
        </mxCell>
      </root>
    </mxGraphModel>
  </diagram>
</mxfile>
